<svg xmlns="http://www.w3.org/2000/svg" viewBox="0 0">
  <path fill="#fff" d="M19.90298 4.1252c-.02745-.05592-.4615-1.0459-1.33283-2.0626C17.70715 1.05175 16.36475 0 14.59785 0c-1.76688 0-3.09587 1.0551-3.94548 2.0718-.2617.31384-.4813.62353-.66322.9065-.18575-.28464-.41555-.59767-.6843-.9157C8.43803 1.05175 7.0969 0 5.32876 0c-1.7669 0-3.0946 1.0551-3.94422 2.0718C.5311 3.09097.11553 4.0843.09063 4.1419L0 4.59933v14.92655l1.36793.4566.0019.0033c.01852-.05176.3894-.8798 1.06218-1.65276.67983-.77964 1.62647-1.49833 2.89673-1.50167 1.30793 0 2.30372.77045 3.00396 1.5843.3447.404.61534.81052.78768 1.11353.08937.15275.15192.27796.19405.35726.01915.04257.0351.07513.0434.096.0032.0083.00767.015.00767.01752h.0032l1.26962-.01503.0013-.0033v-.0033c.02872-.06845.39767-.88314 1.05962-1.6469.683-.77965 1.63092-1.49834 2.89863-1.50168 1.30793 0 2.30116.77045 3.0046 1.5843.34788.404.61087.81052.78514 1.11353.09.15275.1532.27796.19597.35726.02106.04257.03383.07512.0434.096.0051.0083.0077.015.0077.01752h.0013L20 19.5242V4.59934l-.09702-.47412zM5.32874 14.9249h-.00128c-1.71646 0-3.01736.99582-3.86634 1.9833V4.8681c.15-.29965.47747-.8923.9709-1.46326.6798-.77796 1.62645-1.49666 2.89672-1.49666 1.30793 0 2.3037.7713 3.00395 1.5818.3447.40317.61534.8147.7877 1.1177.0619.1035.1117.19783.1468.2696v12.07597c-.86174-1-2.19264-2.02838-3.93846-2.02838zm13.21013 2.02838c-.86748-1.00167-2.1952-2.0284-3.941-2.0284-1.71583-.0033-3.01738.99584-3.86954 1.98332V4.8681c.15064-.29715.47874-.8923.9709-1.46326.683-.77796 1.6309-1.49666 2.89862-1.49666 1.30793 0 2.30117.7713 3.0046 1.5818.3479.40317.61088.8147.78514 1.1177.06255.1035.11234.19783.15064.2696l.00063 12.07597z"/>
</svg>
