<?xml version="1.0" encoding="UTF-8" standalone="no"?>
<svg
   xmlns:dc="http://purl.org/dc/elements/1.1/"
   xmlns:cc="http://creativecommons.org/ns#"
   xmlns:rdf="http://www.w3.org/1999/02/22-rdf-syntax-ns#"
   xmlns:svg="http://www.w3.org/2000/svg"
   xmlns="http://www.w3.org/2000/svg"
   xmlns:sodipodi="http://sodipodi.sourceforge.net/DTD/sodipodi-0.dtd"
   xmlns:inkscape="http://www.inkscape.org/namespaces/inkscape"
   version="1.1"
   viewBox="0 0 0.684375 0.68442999"
   enable-background="new 0 0 21.9 21.9"
   width="16"
   height="16.001286"
   id="svg4184"
   inkscape:version="0.91 r13725"
   sodipodi:docname="close-icon.svg">
  <metadata
     id="metadata4192">
    <rdf:RDF>
      <cc:Work
         rdf:about="">
        <dc:format>image/svg+xml</dc:format>
        <dc:type
           rdf:resource="http://purl.org/dc/dcmitype/StillImage" />
        <dc:title></dc:title>
      </cc:Work>
    </rdf:RDF>
  </metadata>
  <defs
     id="defs4190" />
  <sodipodi:namedview
     pagecolor="#ffffff"
     bordercolor="#666666"
     borderopacity="1"
     objecttolerance="10"
     gridtolerance="10"
     guidetolerance="10"
     inkscape:pageopacity="0"
     inkscape:pageshadow="2"
     inkscape:window-width="1350"
     inkscape:window-height="788"
     id="namedview4188"
     showgrid="false"
     fit-margin-top="0"
     fit-margin-left="0"
     fit-margin-right="0"
     fit-margin-bottom="0"
     inkscape:zoom="0.96"
     inkscape:cx="256"
     inkscape:cy="256.00059"
     inkscape:window-x="0"
     inkscape:window-y="0"
     inkscape:window-maximized="0"
     inkscape:current-layer="svg4184" />
  <path
     d="m 0.44062499,0.353155 c -0.00625,-0.0063 -0.00625,-0.01563 0,-0.02188 L 0.67499999,0.0969 c 0.00625,-0.0063 0.009375,-0.01563 0.009375,-0.02188 0,-0.0062 -0.003125,-0.01563 -0.009375,-0.02187 L 0.63124999,0.0094 C 0.62499999,0.0031 0.61562499,0 0.60937499,0 c -0.009375,0 -0.015625,0.0031 -0.021875,0.0094 l -0.234375,0.234375 c -0.00625,0.0062 -0.015625,0.0062 -0.021875,0 L 0.096875,0.009405 C 0.090625,0.003105 0.08125,5e-6 0.075,5e-6 c -0.00625,0 -0.015625,0.0031 -0.021875,0.0094 l -0.04375,0.04375 C 0.003125,0.059405 0,0.06878 0,0.07503 0,0.08133 0.003125,0.09066 0.009375,0.09691 L 0.24375,0.331285 c 0.00625,0.0063 0.00625,0.01563 0,0.02188 L 0.009375,0.58753 C 0.003125,0.59378 0,0.603155 0,0.609405 c 0,0.0063 0.003125,0.01563 0.009375,0.02188 l 0.04375,0.04375 c 0.00625,0.006245 0.015625,0.00937 0.021875,0.00937 0.00625,0 0.015625,-0.0031 0.021875,-0.0094 l 0.23437499,-0.23435 c 0.00625,-0.0063 0.015625,-0.0063 0.021875,0 l 0.234375,0.234375 c 0.00625,0.0063 0.015625,0.0094 0.021875,0.0094 0.00625,0 0.015625,-0.0031 0.021875,-0.0094 l 0.04375,-0.04375 c 0.00625,-0.0063 0.009375,-0.01563 0.009375,-0.02188 0,-0.0062 -0.003125,-0.01563 -0.009375,-0.02187 l -0.234375,-0.234375 z"
     id="path4186"
     inkscape:connector-curvature="0"
     style="fill:#ffffff" />
</svg>
