<svg xmlns="http://www.w3.org/2000/svg" width="20" height="19.6409">
  <path fill="#fff" d="M1.061 4.8974c0 1.6668.5567 2.87 1.6544 3.577.8983.579 1.942.6654 2.484.6654.1315 0 .237-.005.3108-.0098 0 0-.172 1.1196.6582 2.2277l-.0375-.0004C4.692 11.3577 0 11.658 0 15.5155c0 3.925 4.3096 4.1242 5.174 4.1242.0677 0 .1072-.0013.1072-.0013.0096 0 .0714.0025.1765.0025.555 0 1.989-.07 3.321-.718 1.7274-.839 2.604-2.2974 2.604-4.3356 0-1.9697-1.335-3.142-2.31-3.9987-.595-.522-1.109-.9727-1.109-1.411 0-.4467.3754-.7823.85-1.2075.769-.6878 1.4935-1.6665 1.4935-3.5165 0-1.6262-.211-2.718-1.51-3.4104.1354-.0693.614-.1198.8512-.1526.7044-.096 1.7344-.2053 1.7344-.7803V0h-5.132C6.199.0013 1.061.1917 1.061 4.8975zm8.2843 10.058c.098 1.5696-1.2446 2.7278-3.2602 2.8744-2.047.1496-3.733-.7722-3.831-2.3397-.047-.753.284-1.491.932-2.079.658-.595 1.561-.963 2.543-1.035.116-.007.231-.012.346-.012 1.895 0 3.178 1.1138 3.271 2.592zm-1.34-11.132c.5034 1.7708-.2567 3.6222-1.4682 3.9637-.139.039-.283.06-.429.06-1.109 0-2.209-1.123-2.616-2.6692-.2276-.8692-.2093-1.6285.0518-2.3587C3.8 2.1 4.261 1.6148 4.841 1.4518c.1395-.0396.284-.0597.4294-.0597 1.3404 0 2.202.5558 2.7353 2.432zM16.652 7.68V4.332h-2.12V7.68h-3.348v2.1203h3.348v3.3478h2.1203V9.801H20V7.68h-3.348z"/>
</svg>
