<svg xmlns="http://www.w3.org/2000/svg" width="20" height="20">
  <path fill="#fff" d="M19.3539 0H.6463C.28998 0 0 .30134 0 .67164v2.9852c0 .3703.28998.67164.64632.67164h18.70736c.35612 0 .64632-.30135.64632-.67164V.67164C20.00022.30134 19.71023 0 19.3539 0zm0 7.83576H.6463C.28998 7.83576 0 8.1371 0 8.5074v2.9852c0 .3703.28998.67164.64632.67164h18.70736c.35612 0 .64632-.30134.64632-.67164V8.5074c.00022-.3703-.28977-.67164-.6461-.67164zm0 7.83577H.6463c-.35634 0-.64632.30134-.64632.67163v2.9852C0 19.69866.28998 20 .64632 20h18.70736C19.7098 20 20 19.69866 20 19.32836v-2.9852c.00022-.37052-.28977-.67163-.6461-.67163z"/>
</svg>
