<svg xmlns="http://www.w3.org/2000/svg" width="20" height="20">
  <path fill="#fff" d="M7.0587 10c0 .0686-.0156.1328-.0197.2012l7.166 3.5818c.6136-.5195 1.3985-.8437 2.2657-.8437 1.9495.0004 3.5293 1.58 3.5293 3.5295C20 18.4202 18.42 20 16.4707 20c-1.951 0-3.5293-1.5798-3.5293-3.5312 0-.0703.0157-.133.0196-.2012l-7.166-3.582c-.6154.5175-1.3985.8418-2.2657.8418C1.58 13.5274 0 11.9494 0 10c0-1.951 1.58-3.5312 3.5293-3.5312.867 0 1.6505.3263 2.2656.8438l7.166-3.582c-.004-.0685-.0198-.133-.0198-.203C12.9412 1.58 14.5196 0 16.4707 0 18.4202 0 20 1.58 20 3.5274c0 1.951-1.58 3.5313-3.5293 3.5313-.869 0-1.6525-.3262-2.2656-.8458L7.039 9.797c.0038.0683.0197.1328.0197.203z"/>
</svg>
