<svg xmlns="http://www.w3.org/2000/svg" width="20" height="16.2458">
  <path fill="#fff" d="M20 1.922c-.736.3263-1.526.5475-2.3558.6463.8473-.5074 1.496-1.3123 1.8034-2.2684-.795.4692-1.6722.811-2.607.996C16.092.497 15.027 0 13.846 0c-2.2657 0-4.103 1.8372-4.103 4.1017 0 .3212.0364.635.1064.935-3.4094-.1715-6.4326-1.805-8.456-4.287-.3536.605-.5548 1.31-.5548 2.0622 0 1.423.7248 2.679 1.8246 3.414-.6723-.0228-1.3047-.2077-1.8584-.515v.051c0 1.9872 1.4148 3.6456 3.2907 4.023-.3437.0925-.706.144-1.081.144-.265 0-.5212-.026-.7724-.076.523 1.631 2.0378 2.817 3.832 2.8492-1.403 1.1-3.173 1.7535-5.095 1.7535-.331 0-.6572-.02-.9784-.056 1.816 1.166 3.972 1.8456 6.289 1.8456 7.5473 0 11.673-6.2514 11.673-11.6728l-.014-.5313c.806-.575 1.5034-1.2973 2.052-2.1196z"/>
</svg>
