<svg xmlns="http://www.w3.org/2000/svg" viewBox="0 0"><path fill="#fff" d="M19.903 4.125c-.027-.056-.462-1.046-1.333-2.062C17.707 1.052 16.365 0 14.598 0s-3.096 1.055-3.946 2.072a9.098 9.098 0 0 0-.663.906 9.353 9.353 0 0 0-.684-.915C8.438 1.052 7.097 0 5.329 0 3.562 0 2.234 1.055 1.385 2.072.53 3.09.115 4.084.09 4.142L0 4.599v14.927l1.368.456.002.004a6.98 6.98 0 0 1 1.062-1.653c.68-.78 1.626-1.498 2.897-1.502 1.308 0 2.303.77 3.004 1.585.344.404.615.81.787 1.113.09.153.152.278.194.357.02.043.036.076.044.096.003.009.007.015.007.018h.004l1.27-.015v-.007a7.185 7.185 0 0 1 1.06-1.647c.683-.78 1.631-1.498 2.899-1.501 1.308 0 2.301.77 3.004 1.584.348.404.611.81.786 1.114.09.152.153.278.196.357.02.042.033.075.043.096a.048.048 0 0 1 .008.017h.001L20 19.524V4.6l-.097-.474zm-14.574 10.8h-.002c-1.716 0-3.017.996-3.866 1.983V4.868c.15-.3.478-.892.971-1.463.68-.778 1.626-1.497 2.897-1.497 1.308 0 2.303.771 3.004 1.582a7.436 7.436 0 0 1 .934 1.387v12.076c-.862-1-2.192-2.028-3.938-2.028zm13.21 2.028c-.868-1.001-2.195-2.028-3.941-2.028-1.716-.003-3.018.996-3.87 1.983V4.868a7.5 7.5 0 0 1 .971-1.463c.683-.778 1.631-1.497 2.899-1.497 1.308 0 2.301.771 3.004 1.582.348.403.611.815.786 1.118.062.103.112.198.15.27v12.075z"/></svg>