<svg xmlns="http://www.w3.org/2000/svg" viewBox="0 0 0.684375 0.68442999" width="16" height="16.001"><path d="M.44.353a.015.015 0 0 1 0-.022L.676.097a.034.034 0 0 0 .01-.022.034.034 0 0 0-.01-.022L.631.01A.034.034 0 0 0 .61 0a.028.028 0 0 0-.022.01L.353.243a.015.015 0 0 1-.022 0L.097.009A.034.034 0 0 0 .075 0a.034.034 0 0 0-.022.01L.01.052A.034.034 0 0 0 0 .075c0 .006.003.016.01.022L.243.33a.015.015 0 0 1 0 .022L.009.588A.034.034 0 0 0 0 .609a.03.03 0 0 0 .01.022l.043.044c.006.006.016.01.022.01a.034.034 0 0 0 .022-.01L.33.441a.015.015 0 0 1 .022 0l.234.234a.04.04 0 0 0 .022.01.034.034 0 0 0 .022-.01L.675.631A.034.034 0 0 0 .685.61a.034.034 0 0 0-.01-.021L.441.353z" fill="#fff"/></svg>