<svg xmlns="http://www.w3.org/2000/svg" width="20" height="19.641"><path fill="#fff" d="M1.061 4.897c0 1.667.557 2.87 1.654 3.577.899.58 1.942.666 2.484.666.132 0 .237-.005.311-.01 0 0-.172 1.12.658 2.228h-.037c-1.439 0-6.131.3-6.131 4.157 0 3.925 4.31 4.125 5.174 4.125.068 0 .107-.002.107-.002.01 0 .072.003.177.003.555 0 1.989-.07 3.32-.718 1.728-.84 2.605-2.297 2.605-4.336 0-1.97-1.335-3.142-2.31-3.998-.595-.522-1.11-.973-1.11-1.411 0-.447.376-.783.85-1.208.77-.688 1.494-1.666 1.494-3.516 0-1.627-.21-2.718-1.51-3.41.136-.07.614-.12.851-.153.705-.096 1.735-.206 1.735-.78V0H6.25c-.052.001-5.19.192-5.19 4.897zm8.284 10.058c.098 1.57-1.244 2.728-3.26 2.875-2.047.15-3.733-.772-3.83-2.34-.048-.753.283-1.49.931-2.079.658-.595 1.561-.963 2.543-1.035a5.74 5.74 0 0 1 .346-.012c1.895 0 3.178 1.114 3.271 2.592zM8.005 3.823c.504 1.771-.256 3.623-1.468 3.964-.139.04-.283.06-.429.06C5 7.847 3.9 6.724 3.492 5.177c-.227-.868-.21-1.628.052-2.358C3.8 2.1 4.26 1.615 4.84 1.452c.14-.04.284-.06.43-.06 1.34 0 2.201.556 2.735 2.432zm8.647 3.857V4.332h-2.12V7.68h-3.348V9.8h3.348v3.348h2.12V9.801H20V7.68h-3.348z"/></svg>