<svg xmlns="http://www.w3.org/2000/svg" width="20" height="16.246"><path fill="#fff" d="M20 1.922a8.19 8.19 0 0 1-2.356.646A4.12 4.12 0 0 0 19.448.3a8.29 8.29 0 0 1-2.607.996 4.103 4.103 0 0 0-6.991 3.74A11.65 11.65 0 0 1 1.392.75 4.074 4.074 0 0 0 .84 2.812a4.1 4.1 0 0 0 1.824 3.414A4.11 4.11 0 0 1 .805 5.71v.05a4.107 4.107 0 0 0 3.29 4.024 4.154 4.154 0 0 1-1.08.144c-.265 0-.522-.026-.773-.076a4.106 4.106 0 0 0 3.832 2.85A8.229 8.229 0 0 1 .98 14.455c-.33 0-.657-.02-.978-.056a11.598 11.598 0 0 0 6.289 1.845c7.547 0 11.673-6.251 11.673-11.673l-.014-.53A8.195 8.195 0 0 0 20 1.921z"/></svg>